# xmcd
#
# Track frame offsets:
#	150
#	141308
#	176478
#	249063
#	268850
#
# Disc length: 3869 seconds
#
# Revision: 0
# Processed by: cddbd v1.5.1PL0 Copyright (c) Steve Scherf et al.
# Submitted via: dBpowerAMP V4.0
#
DISCID=400f1b05
DTITLE=Led Zeppelin - Best of Tour '73 - Vol. 2
DYEAR=1900
DGENRE=
TTITLE0=Dezed and Confused
TTITLE1=Heartbreaker
TTITLE2=Whole Lotta Love
TTITLE3=The Ocean
TTITLE4=Communication Breakdown
EXTD=
EXTT0=
EXTT1=
EXTT2=
EXTT3=
EXTT4=
PLAYORDER=
